<svg xmlns="http://www.w3.org/2000/svg" xmlns:xlink="http://www.w3.org/1999/xlink" width="130" zoomAndPan="magnify" viewBox="0 0 97.5 30.000001" height="40" preserveAspectRatio="xMidYMid meet" version="1.0"><defs><filter x="0%" y="0%" width="100%" height="100%" id="89a06fcfad"><feColorMatrix values="0 0 0 0 1 0 0 0 0 1 0 0 0 0 1 0 0 0 1 0" color-interpolation-filters="sRGB"/></filter><g/><clipPath id="01917f2e07"><path d="M 4 0 L 34 0 L 34 29.03125 L 4 29.03125 Z M 4 0 " clip-rule="nonzero"/></clipPath><mask id="8f95ba0ef2"><g filter="url(#89a06fcfad)"><rect x="-9.75" width="117" fill="#000000" y="-3" height="36.000001" fill-opacity="0.3"/></g></mask><clipPath id="d9b8842198"><path d="M 0.234375 0 L 29.265625 0 L 29.265625 29.03125 L 0.234375 29.03125 Z M 0.234375 0 " clip-rule="nonzero"/></clipPath><clipPath id="d1b8dcae56"><rect x="0" width="30" y="0" height="30"/></clipPath></defs><g clip-path="url(#01917f2e07)"><g mask="url(#8f95ba0ef2)"><g transform="matrix(1, 0, 0, 1, 4, 0.000000000000005692)"><g clip-path="url(#d1b8dcae56)"><g clip-path="url(#d9b8842198)"><path fill="#ffffff" d="M 29.265625 14.515625 C 29.265625 15.46875 29.171875 16.414062 28.988281 17.347656 C 28.800781 18.28125 28.527344 19.191406 28.160156 20.070312 C 27.796875 20.953125 27.347656 21.789062 26.820312 22.582031 C 26.289062 23.371094 25.6875 24.105469 25.015625 24.78125 C 24.339844 25.453125 23.605469 26.054688 22.8125 26.585938 C 22.023438 27.113281 21.183594 27.5625 20.304688 27.925781 C 19.425781 28.292969 18.515625 28.566406 17.582031 28.753906 C 16.648438 28.9375 15.703125 29.03125 14.75 29.03125 C 13.796875 29.03125 12.851562 28.9375 11.917969 28.753906 C 10.984375 28.566406 10.074219 28.292969 9.195312 27.925781 C 8.3125 27.5625 7.476562 27.113281 6.683594 26.585938 C 5.894531 26.054688 5.160156 25.453125 4.484375 24.78125 C 3.8125 24.105469 3.210938 23.371094 2.679688 22.582031 C 2.152344 21.789062 1.703125 20.953125 1.339844 20.070312 C 0.972656 19.191406 0.699219 18.28125 0.511719 17.347656 C 0.328125 16.414062 0.234375 15.46875 0.234375 14.515625 C 0.234375 13.5625 0.328125 12.617188 0.511719 11.683594 C 0.699219 10.75 0.972656 9.839844 1.339844 8.960938 C 1.703125 8.082031 2.152344 7.242188 2.679688 6.453125 C 3.210938 5.660156 3.8125 4.925781 4.484375 4.25 C 5.160156 3.578125 5.894531 2.976562 6.683594 2.445312 C 7.476562 1.917969 8.3125 1.46875 9.195312 1.105469 C 10.074219 0.738281 10.984375 0.464844 11.917969 0.277344 C 12.851562 0.09375 13.796875 0 14.75 0 C 15.703125 0 16.648438 0.09375 17.582031 0.277344 C 18.515625 0.464844 19.425781 0.738281 20.304688 1.105469 C 21.183594 1.46875 22.023438 1.917969 22.8125 2.445312 C 23.605469 2.976562 24.339844 3.578125 25.015625 4.25 C 25.6875 4.925781 26.289062 5.660156 26.820312 6.453125 C 27.347656 7.242188 27.796875 8.082031 28.160156 8.960938 C 28.527344 9.839844 28.800781 10.75 28.988281 11.683594 C 29.171875 12.617188 29.265625 13.5625 29.265625 14.515625 Z M 29.265625 14.515625 " fill-opacity="1" fill-rule="nonzero"/></g></g></g></g></g><g fill="#ffffff" fill-opacity="1"><g transform="translate(12.705391, 19.959679)"><g><path d="M 11.203125 -1.671875 L 7.046875 -11.609375 C 6.828125 -12.125 6.515625 -12.359375 5.984375 -12.359375 L 4.171875 -12.359375 C 3.96875 -12.359375 3.828125 -12.234375 3.828125 -12.078125 L 3.828125 -12.015625 C 3.828125 -11.640625 4.6875 -11.203125 4.4375 -10.5625 L 0.96875 -1.671875 C 0.65625 -0.828125 0.03125 -0.78125 0.03125 -0.34375 L 0.03125 -0.296875 C 0.03125 -0.109375 0.1875 0 0.421875 0 L 2.703125 0 C 2.953125 0 3.09375 -0.109375 3.09375 -0.296875 L 3.09375 -0.34375 C 3.09375 -0.78125 2.125 -0.9375 2.40625 -1.671875 L 2.90625 -3.0625 L 7.765625 -3.0625 L 8.28125 -1.671875 C 8.5625 -0.9375 7.59375 -0.78125 7.59375 -0.34375 L 7.59375 -0.296875 C 7.59375 -0.109375 7.75 0 7.96875 0 L 11.78125 0 C 12.015625 0 12.171875 -0.109375 12.171875 -0.296875 L 12.171875 -0.34375 C 12.171875 -0.78125 11.5625 -0.859375 11.203125 -1.671875 Z M 3.328125 -4.1875 L 5.3125 -9.609375 L 7.34375 -4.1875 Z M 3.328125 -4.1875 "/></g></g></g><g fill="#ffffff" fill-opacity="1"><g transform="translate(38.504029, 21.338704)"><g><path d="M 5.25 -0.796875 C 4.34375 -0.796875 3.460938 -1.171875 2.609375 -1.921875 C 1.765625 -2.679688 1.023438 -3.738281 0.390625 -5.09375 L 1.21875 -5.578125 C 1.769531 -4.421875 2.394531 -3.519531 3.09375 -2.875 C 3.789062 -2.238281 4.507812 -1.921875 5.25 -1.921875 C 5.71875 -1.921875 6.117188 -2.09375 6.453125 -2.4375 C 6.785156 -2.78125 6.953125 -3.203125 6.953125 -3.703125 C 6.953125 -4.316406 6.757812 -4.832031 6.375 -5.25 C 6 -5.664062 5.550781 -5.875 5.03125 -5.875 C 4.863281 -5.875 4.6875 -5.859375 4.5 -5.828125 C 4.3125 -5.796875 4.109375 -5.738281 3.890625 -5.65625 L 3.4375 -6.6875 C 4.113281 -6.738281 4.710938 -6.96875 5.234375 -7.375 C 5.753906 -7.789062 6.015625 -8.238281 6.015625 -8.71875 C 6.015625 -9.144531 5.882812 -9.515625 5.625 -9.828125 C 5.363281 -10.140625 5.050781 -10.296875 4.6875 -10.296875 C 4.25 -10.296875 3.789062 -10.15625 3.3125 -9.875 C 2.832031 -9.601562 2.382812 -9.21875 1.96875 -8.71875 L 1.171875 -9.5 C 1.566406 -10.082031 2.070312 -10.53125 2.6875 -10.84375 C 3.3125 -11.164062 3.976562 -11.328125 4.6875 -11.328125 C 5.382812 -11.328125 5.972656 -11.070312 6.453125 -10.5625 C 6.929688 -10.0625 7.171875 -9.445312 7.171875 -8.71875 C 7.171875 -8.332031 7.078125 -7.960938 6.890625 -7.609375 C 6.710938 -7.265625 6.46875 -6.957031 6.15625 -6.6875 C 6.726562 -6.351562 7.234375 -6.097656 7.671875 -5.921875 C 8.117188 -5.742188 8.476562 -5.65625 8.75 -5.65625 C 8.925781 -5.65625 9.132812 -5.703125 9.375 -5.796875 C 9.625 -5.898438 9.910156 -6.039062 10.234375 -6.21875 L 10.234375 -10.296875 L 8.1875 -10.296875 L 8.1875 -11.328125 L 13.296875 -11.328125 L 13.296875 -10.296875 L 11.359375 -10.296875 L 11.359375 0 L 10.234375 0 L 10.234375 -5.09375 C 10.054688 -4.9375 9.875 -4.820312 9.6875 -4.75 C 9.5 -4.675781 9.300781 -4.640625 9.09375 -4.640625 C 8.78125 -4.640625 8.492188 -4.671875 8.234375 -4.734375 C 7.984375 -4.796875 7.78125 -4.878906 7.625 -4.984375 C 7.78125 -4.859375 7.894531 -4.6875 7.96875 -4.46875 C 8.039062 -4.25 8.078125 -4.003906 8.078125 -3.734375 C 8.078125 -2.921875 7.800781 -2.226562 7.25 -1.65625 C 6.695312 -1.082031 6.03125 -0.796875 5.25 -0.796875 Z M 5.25 -0.796875 "/></g></g></g><g fill="#ffffff" fill-opacity="1"><g transform="translate(51.560039, 21.338704)"><g><path d="M 5.09375 -2.265625 C 4.019531 -2.265625 3.0625 -2.632812 2.21875 -3.375 C 1.382812 -4.125 0.875 -5.070312 0.6875 -6.21875 C 0.800781 -6.175781 0.984375 -6.148438 1.234375 -6.140625 C 1.492188 -6.128906 1.875 -6.125 2.375 -6.125 C 3.195312 -6.125 3.894531 -6.351562 4.46875 -6.8125 C 5.039062 -7.28125 5.328125 -7.835938 5.328125 -8.484375 C 5.328125 -9.046875 5.144531 -9.523438 4.78125 -9.921875 C 4.425781 -10.316406 4 -10.515625 3.5 -10.515625 C 3.070312 -10.515625 2.703125 -10.394531 2.390625 -10.15625 C 2.078125 -9.925781 1.921875 -9.632812 1.921875 -9.28125 C 1.921875 -9 2.050781 -8.757812 2.3125 -8.5625 C 2.582031 -8.363281 2.90625 -8.265625 3.28125 -8.265625 L 3.28125 -7.125 C 2.53125 -7.125 1.925781 -7.320312 1.46875 -7.71875 C 1.019531 -8.113281 0.796875 -8.632812 0.796875 -9.28125 C 0.796875 -9.925781 1.054688 -10.484375 1.578125 -10.953125 C 2.109375 -11.421875 2.75 -11.65625 3.5 -11.65625 C 4.3125 -11.65625 5.003906 -11.347656 5.578125 -10.734375 C 6.160156 -10.117188 6.453125 -9.367188 6.453125 -8.484375 C 6.453125 -7.515625 6.046875 -6.6875 5.234375 -6 C 4.421875 -5.320312 3.429688 -4.984375 2.265625 -4.984375 C 2.484375 -4.492188 2.847656 -4.109375 3.359375 -3.828125 C 3.878906 -3.546875 4.457031 -3.40625 5.09375 -3.40625 C 5.707031 -3.40625 6.335938 -3.585938 6.984375 -3.953125 C 7.640625 -4.328125 8.253906 -4.859375 8.828125 -5.546875 L 8.828125 -10.296875 L 7.703125 -10.296875 L 7.703125 -11.328125 L 11.875 -11.328125 L 11.875 -10.296875 L 9.96875 -10.296875 L 9.96875 0 L 8.828125 0 L 8.828125 -4.078125 C 8.253906 -3.503906 7.640625 -3.054688 6.984375 -2.734375 C 6.335938 -2.421875 5.707031 -2.265625 5.09375 -2.265625 Z M 5.09375 -2.265625 "/></g></g></g><g fill="#ffffff" fill-opacity="1"><g transform="translate(63.205049, 21.338704)"><g><path d="M -0.21875 -10.296875 L -0.21875 -11.328125 L 9.46875 -11.328125 L 9.46875 -10.296875 L 7.53125 -10.296875 L 7.53125 0 L 6.40625 0 L 6.40625 -3.625 C 6.101562 -3.257812 5.742188 -2.976562 5.328125 -2.78125 C 4.910156 -2.582031 4.476562 -2.484375 4.03125 -2.484375 C 3.09375 -2.484375 2.289062 -2.78125 1.625 -3.375 C 0.957031 -3.976562 0.625 -4.703125 0.625 -5.546875 C 0.625 -6.390625 0.957031 -7.109375 1.625 -7.703125 C 2.289062 -8.296875 3.09375 -8.59375 4.03125 -8.59375 C 4.300781 -8.59375 4.5625 -8.554688 4.8125 -8.484375 C 5.0625 -8.410156 5.289062 -8.296875 5.5 -8.140625 L 4.921875 -7.234375 C 4.785156 -7.335938 4.644531 -7.421875 4.5 -7.484375 C 4.351562 -7.546875 4.195312 -7.578125 4.03125 -7.578125 C 3.40625 -7.578125 2.867188 -7.378906 2.421875 -6.984375 C 1.984375 -6.585938 1.765625 -6.109375 1.765625 -5.546875 C 1.765625 -5.023438 1.984375 -4.570312 2.421875 -4.1875 C 2.867188 -3.8125 3.40625 -3.625 4.03125 -3.625 C 4.46875 -3.625 4.894531 -3.769531 5.3125 -4.0625 C 5.738281 -4.363281 6.101562 -4.785156 6.40625 -5.328125 L 6.40625 -10.296875 Z M -0.21875 -10.296875 "/></g></g></g><g fill="#ffffff" fill-opacity="1"><g transform="translate(71.383971, 21.321704)"><g><path d="M -2.171875 -11.328125 C -2.554688 -11.648438 -2.859375 -12.003906 -3.078125 -12.390625 C -3.304688 -12.785156 -3.421875 -13.179688 -3.421875 -13.578125 C -3.421875 -14.273438 -3.15625 -14.863281 -2.625 -15.34375 C -2.09375 -15.820312 -1.453125 -16.0625 -0.703125 -16.0625 C -0.492188 -16.0625 -0.285156 -16.046875 -0.078125 -16.015625 C 0.117188 -15.984375 0.328125 -15.925781 0.546875 -15.84375 L 0.546875 -14.828125 C 0.222656 -14.953125 -0.0351562 -15.035156 -0.234375 -15.078125 C -0.441406 -15.128906 -0.597656 -15.15625 -0.703125 -15.15625 C -1.140625 -15.15625 -1.507812 -15.003906 -1.8125 -14.703125 C -2.125 -14.398438 -2.28125 -14.023438 -2.28125 -13.578125 C -2.28125 -13.160156 -2.132812 -12.75 -1.84375 -12.34375 C -1.5625 -11.945312 -1.179688 -11.609375 -0.703125 -11.328125 Z M -2.171875 -11.328125 "/></g></g></g></svg>